<svg width="494" height="217" viewBox="0 0 494 217" xmlns="http://www.w3.org/2000/svg" xmlns:xlink="http://www.w3.org/1999/xlink"><title>Group 3</title><defs><path d="M28.472 29.771a13.23 13.23 0 0 1 7.865-2.58c7.342 0 13.303 5.97 13.303 13.32 0 7.354-5.961 13.321-13.303 13.321a13.26 13.26 0 0 1-9.857-4.38c-.072-3.592-.134-7.185.228-10.753.306-3.019 1.029-5.974 1.764-8.928z" id="a"/><mask id="p" x="-2" y="-2" width="27.215" height="30.641"><path fill="#fff" d="M24.425 25.191H51.64v30.641H24.425z"/><use xlink:href="#a"/></mask><path d="M121.66 49.962a13.259 13.259 0 0 1-9.74 4.253c-7.342 0-13.303-5.97-13.303-13.32 0-7.352 5.961-13.321 13.302-13.321 2.878 0 5.544.916 7.723 2.475l1.907 9.032.112 10.881z" id="b"/><mask id="q" x="-2" y="-2" width="27.044" height="30.641"><path fill="#fff" d="M96.617 25.574h27.044v30.641H96.617z"/><use xlink:href="#b"/></mask><path d="M18.913 86.407c-1.672-5.064-4.709-14.973-4.979-20.951-.406-8.963 4.385-29.595 4.385-29.595s7.35-28.516 7.692-29.996C27.19.747 29.338.065 32.015.99c5.142 1.777 6.327 3.17 5.055 6.043-1.315 2.964-3.137 4.623-6.707 3.59-.012-.002-5.886 27.829-5.886 27.829l-.196 19.341s7.537-1.17 10.449-1.022c3.532.177 12.166 1.369 12.166 1.369l7.779 1.735-4.126 10.98-2.253 18.614c-.402 2.397-.197 5.211-.047 5.898.487 2.213 1.563 7.452 2.588 11.988 2.252 9.967 1.415 48.68 1.415 48.68L45.95 209.03c-.194 1.684-1.692 2.875-3.38 2.755-2.516-.181-3.311-1.536-3.313-3.15-.016-9.446-.06-39.115-.06-39.115l2.614-14.463-6.196-34.81c-1.74.74-5.626.047-5.626.047l-12.12 37.223-.987 14.076L7.254 209.5c-.397 1.565-1.8 2.473-3.983 2.24-1.684-.179-2.827-1.818-2.604-3.499l6.801-51.522s5.988-41.187 8.927-48.947c.529-1.395 1.612-4.595 2.462-7.497.045-.015 2.088-.787 3.102-2.238.803-1.147 1.625-1.408 1.893-3.711.116-1.013-.86-3.025-1.679-4.342-.824-1.319-2.965-3.365-3.26-3.577z" id="c"/><mask id="r" x="-2" y="-2" width="58.035" height="215.152"><path fill="#fff" d="M-1.36-1.359h58.035v215.152H-1.36z"/><use xlink:href="#c"/></mask><path d="M128.897 98.871c.87 3.251 2.324 7.593 2.965 9.283 2.938 7.76 8.926 48.947 8.926 48.947l6.801 51.522c.223 1.68-.92 3.32-2.603 3.5-2.184.232-3.586-.676-3.983-2.243l-9.628-37.905-.987-14.076-12.119-37.223s-3.887.691-5.626-.049l-6.196 34.81 2.614 14.466s-.044 29.668-.06 39.112c-.002 1.616-.797 2.971-3.313 3.15-1.688.12-3.186-1.069-3.38-2.755l-6.304-52.991s-.837-38.714 1.416-48.68c1.025-4.537 2.101-9.776 2.588-11.991.15-.684.355-3.501-.047-5.896L97.726 71.39c.433-.673-3.023-7.805-4.81-10.985l8.445-1.882s8.634-1.192 12.166-1.368c2.911-.148 10.449 1.02 10.449 1.02l-.197-19.34s-5.874-27.83-5.885-27.828c-3.57 1.03-5.392-.626-6.707-3.59-1.273-2.876-.087-4.269 5.055-6.044 2.677-.926 4.825-.244 6.004 4.874.341 1.48 7.691 29.997 7.691 29.997s4.792 20.629 4.385 29.594c-.23 5.12-2.491 13.124-4.188 18.499-.592.241-3.012 2.475-3.715 3.805-1.37 2.589-1.72 4.395-1.588 5.299.237 1.625.927 3.349 2.01 4.438.844.85 1.768.923 2.056.992z" id="d"/><mask id="s" x="-2" y="-2" width="58.7" height="215.15"><path fill="#fff" d="M90.917-.977h58.7v215.15h-58.7z"/><use xlink:href="#d"/></mask><path d="M57.128 107.038c.297-3.899 2.3-11.661 2.47-15.498.196-4.505-1.443-13.924-1.443-13.924L50.67 88.533s2.15-17.998 2.14-19.415c1.057-2.318 2.053-4.485 2.848-6.2.534.333 2.891 2.218 4.941 2.28 2.539.075 6.156-1.938 6.984-3.1 1.087-1.532.34-4.993.288-5.17 2.378-.232 4.655-.415 6.359-.437 1.145-.016 3.581.225 6.265.516-.098.787.616 3.928.866 4.749.746 2.457 3.566 3.597 5.222 3.38.938-.125 4.528-1.683 5.397-2.21.998 1.85 2.266 4.225 3.601 6.733.034 1.4 1.918 18.427 1.918 18.427l-.067.031-8.42-12.298s-2.187 10.425-1.984 15.185c.196 4.583 3.07 10.027 3.38 15.212.728 12.222-1.025 49.698-1.025 49.698l-3.438 54.377c-.094 1.494-1.358 2.542-2.851 2.59-3.202.098-3.626-1.233-3.693-2.67l-1.932-40.822 1.863-15.1h.038l-3.408-37.076c-1.797.351-3.652.438-5.425-.07l-3.153 36.683.04-.003 1.842 15.105-1.98 40.82c-.07 1.435-1.335 2.652-3.695 2.663-1.496.006-2.757-1.098-2.849-2.591l-3.371-54.382s-1.175-36.18-.242-48.4z" id="e"/><mask id="t" x="-2" y="-2" width="50.829" height="160.396"><path fill="#fff" d="M48.669 54.49h50.829v160.396H48.669z"/><use xlink:href="#e"/></mask><path d="M65.215 55.471c.438 2.886 2.508 5.292-1.815 7.023-2.655 1.062-3.46.449-6.973-1.726-1.87-1.16-.013-4.731 2.997-6.837 2.418-1.695 5.195-2.38 5.791 1.54z" id="f"/><mask id="u" x="-2" y="-2" width="14.418" height="14.419"><path fill="#fff" d="M53.676 50.583h14.418v14.419H53.676z"/><use xlink:href="#f"/></mask><path d="M18.775 89.461c1.681 2.386 4.608 3.608 1.516 7.092-1.9 2.14-2.894 1.954-7.006 1.583-2.193-.2-2.128-4.224-.378-7.457 1.405-2.6 3.584-4.455 5.868-1.218z" id="g"/><mask id="v" x="-2" y="-2" width="14.033" height="14.628"><path fill="#fff" d="M9.615 85.738h14.033v14.628H9.615z"/><use xlink:href="#g"/></mask><path d="M84.247 61.745c-2.141-2.09-1.708-3.352-1.206-6.656.596-3.917 3.374-3.235 5.792-1.54 3.01 2.108 4.847 5.647 2.996 6.836-5.767 3.703-6.338 2.574-7.582 1.36z" id="h"/><mask id="w" x="-2" y="-2" width="13.941" height="14.708"><path fill="#fff" d="M80.631 50.202h13.941V64.91H80.631z"/><use xlink:href="#h"/></mask><path d="M127.417 94.534c-1.02-2.815-.083-3.763 1.804-6.52 2.237-3.268 4.44-1.444 5.883 1.134 1.795 3.208 1.913 7.197-.268 7.46-6.801.826-6.826-.44-7.42-2.074z" id="i"/><mask id="x" x="-2" y="-2" width="13.464" height="14.612"><path fill="#fff" d="M124.998 84.256h13.464v14.612h-13.464z"/><use xlink:href="#i"/></mask><ellipse id="j" cx="74.048" cy="40.427" rx="13.303" ry="13.321"/><mask id="y" x="-2" y="-2" width="30.605" height="30.641"><path fill="#fff" d="M58.745 25.106H89.35v30.641H58.745z"/><use xlink:href="#j"/></mask><path d="M81.453 27.527c-1.607-7.602-3.674-17.36-3.678-17.358-3.365.97-5.082-.588-6.318-3.378-1.2-2.704-.083-4.015 4.76-5.687 2.523-.868 4.545-.226 5.656 4.588.32 1.391 7.247 28.217 7.247 28.217s4.513 19.41 4.13 27.841c-.353 7.801-5.72 22.717-5.72 22.717-.325 1.47-.177 3.598-.03 5.333.188 2.26 2.578 9.507 3.43 11.758 2.768 7.3 8.41 46.046 8.41 46.046l6.406 48.469c.213 1.58-.867 3.124-2.451 3.292-2.058.218-3.378-.637-3.753-2.11l-9.07-35.66-.928-13.241-11.417-35.016s-3.66.65-5.299-.045l-5.837 32.747 2.464 13.607s-.045 27.91-.058 36.796c-.003 1.52-.752 2.792-3.122 2.962-1.59.115-3.001-1.007-3.183-2.592l-5.938-49.85s-.79-36.42 1.333-45.796c.965-4.269 1.98-9.195 2.437-11.28.142-.644.335-3.292-.042-5.546l-2.278-20.405S52.184 58.882 46.5 53.48L3.813 54.952a2.132 2.132 0 0 1-2.204-2.056C1.405 46.938.824 30.132.62 24.171a2.13 2.13 0 0 1 2.056-2.201l22.728-.849c-.024-.343.532-2.65 3.053-2.902 3.741-.37 4.03 2.723 4.03 2.723l13.004-.45a2.132 2.132 0 0 1 2.204 2.057l.759 22.032L62.199 54.87s8.133-1.122 11.462-1.288c2.742-.137 9.843.96 9.843.96l-.083-8.153a13.257 13.257 0 0 1-10.23 4.814c-7.327 0-13.279-5.952-13.279-13.28 0-7.33 5.952-13.28 13.28-13.28 3.122 0 5.992 1.08 8.261 2.885z" id="k"/><mask id="z" x="-2" y="-2" width="109.154" height="202.637"><path fill="#fff" d="M-1.382-1.223h109.154v202.637H-1.382z"/><use xlink:href="#k"/></mask><path d="M60.002 28.246a8781.076 8781.076 0 0 0-3.764-17.801c-3.44.994-5.197-.605-6.464-3.464-1.227-2.774-.085-4.118 4.873-5.832 2.579-.894 4.65-.235 5.787 4.702.328 1.43 7.413 28.939 7.413 28.939s4.618 19.904 4.228 28.552c-.363 8-5.854 23.297-5.854 23.297-.333 1.508-.179 3.69-.032 5.469.193 2.318 2.639 9.752 3.511 12.058 2.834 7.487 8.608 47.223 8.608 47.223l6.554 49.707c.216 1.623-.886 3.204-2.51 3.377-2.106.223-3.456-.652-3.84-2.162l-9.28-36.57-.95-13.58-11.68-35.913s-3.749.67-5.425-.046l-5.973 33.585 2.521 13.955-.057 37.734c-.003 1.558-.77 2.865-3.195 3.038-1.628.117-3.072-1.031-3.259-2.656l-6.076-51.127s-.806-37.349 1.364-46.965c.988-4.376 2.028-9.43 2.494-11.566.145-.66-2.735 1.072-4.285-1.022-4.348-5.876-9.381-24.094-12.948-34.08-.714.897-1.408 1.643-2.044 2.154-2.168 1.733-6.056-2.067-3.566-3.151 1.29-.562 2.595-1.888 3.812-3.533a18.814 18.814 0 0 0-.301-.608 2.51 2.51 0 0 1-.126-2.028 2.49 2.49 0 0 1 1.419-1.452l.002-.002a2.423 2.423 0 0 1 1.615-.063 65.2 65.2 0 0 0 1.65-3.233c-1.772-.746-4.62-2.019-4.62-2.019-3.71-1.754-12.447-2.92-18.108.09-5.263 2.799 8.047-30.12 10.075-23.592 1.906 6.136 9.159 10.986 12.642 12.71 0 0 8.103 3.533 10.826 4.532 2.515.92-2.287 12.166-4.685 10.972a59.1 59.1 0 0 0-2.19-1.006 112.236 112.236 0 0 1-2.99 5.227l9.353 19.736s1.001-13.342 5.966-15.068c3.367-1.172 8.132-1.628 11.536-1.8 2.806-.14 10.072.987 10.072.987l-.085-8.362c-2.494 3.013-6.258 4.935-10.465 4.935-7.5 0-13.588-6.102-13.588-13.62 0-7.514 6.088-13.618 13.588-13.618 3.192 0 6.132 1.107 8.451 2.96z" id="l"/><mask id="A" x="-2" y="-2" width="88.615" height="207.711"><path fill="#fff" d="M-1.726-1.189h88.615v207.711H-1.726z"/><use xlink:href="#l"/></mask><path d="M1.53 16.833c.107.046.377.19.754.44a10.032 10.032 0 0 1 1.97 1.735c1.78 2.027 2.878 4.759 2.938 8.38.062 3.682-1.056 6.563-2.957 8.79a11.614 11.614 0 0 1-2.016 1.87c-.39.283-.674.452-.796.513a2 2 0 0 0 1.787 3.578c.309-.154.778-.433 1.354-.85a15.593 15.593 0 0 0 2.713-2.514c2.513-2.944 3.993-6.759 3.915-11.453-.077-4.59-1.538-8.228-3.934-10.954A14.013 14.013 0 0 0 4.5 13.942c-.59-.392-1.072-.648-1.394-.786a2 2 0 1 0-1.576 3.677z" id="m"/><mask id="B" x="-2" y="-2" width="14.878" height="33.356"><path fill="#fff" d="M-1.684 10.994h14.878V44.35H-1.684z"/><use xlink:href="#m"/></mask><path d="M5.3 9.702c.229.098.71.353 1.36.785a16.795 16.795 0 0 1 3.299 2.905c2.956 3.363 4.772 7.887 4.87 13.818.102 6.038-1.746 10.8-4.89 14.484a19.266 19.266 0 0 1-3.345 3.102c-.39.284-.75.519-1.068.708a6.337 6.337 0 0 1-.332.188 2 2 0 0 0 1.787 3.578c.43-.214 1.11-.619 1.958-1.233 1.383-1 2.76-2.243 4.043-3.746 3.755-4.4 5.965-10.097 5.847-17.147-.115-6.9-2.295-12.33-5.866-16.393a20.776 20.776 0 0 0-4.089-3.595c-.862-.573-1.556-.941-1.999-1.13A2 2 0 0 0 5.3 9.701z" id="n"/><mask id="C" x="-2" y="-2" width="18.747" height="47.619"><path fill="#fff" d="M2.087 3.863h18.747v47.619H2.087z"/><use xlink:href="#n"/></mask><path d="M10.704 3.918c.059.025.213.098.448.223.417.22.889.5 1.401.841a22.28 22.28 0 0 1 4.378 3.855c3.91 4.447 6.309 10.424 6.44 18.229.132 7.948-2.308 14.238-6.459 19.101a25.472 25.472 0 0 1-4.424 4.103c-.52.376-.999.69-1.423.943-.242.143-.402.23-.467.263a2 2 0 0 0 1.787 3.579c.527-.264 1.38-.77 2.448-1.544a29.452 29.452 0 0 0 5.122-4.747C24.717 43.184 27.52 35.96 27.37 27c-.147-8.773-2.91-15.656-7.434-20.803a26.26 26.26 0 0 0-5.168-4.545C13.686.931 12.82.473 12.28.241a2 2 0 0 0-1.575 3.677z" id="o"/><mask id="D" x="-2" y="-2" width="21.885" height="59.187"><path fill="#fff" d="M7.491-1.921h21.885v59.187H7.491z"/><use xlink:href="#o"/></mask></defs><g fill="none" fill-rule="evenodd"><g transform="translate(86 2)"><use fill="#000" xlink:href="#a"/><use stroke="#FFF" mask="url(#p)" stroke-width="4" xlink:href="#a"/></g><g transform="translate(86 2)"><use fill="#000" xlink:href="#b"/><use stroke="#FFF" mask="url(#q)" stroke-width="4" xlink:href="#b"/></g><g transform="translate(86 2)"><use fill="#000" xlink:href="#c"/><use stroke="#FFF" mask="url(#r)" stroke-width="4" xlink:href="#c"/></g><g transform="translate(86 2)"><use fill="#000" xlink:href="#d"/><use stroke="#FFF" mask="url(#s)" stroke-width="4" xlink:href="#d"/></g><g transform="translate(86 2)"><use fill="#000" xlink:href="#e"/><use stroke="#FFF" mask="url(#t)" stroke-width="4" xlink:href="#e"/></g><g transform="translate(86 2)"><use fill="#000" xlink:href="#f"/><use stroke="#FFF" mask="url(#u)" stroke-width="4" xlink:href="#f"/></g><g transform="translate(86 2)"><use fill="#000" xlink:href="#g"/><use stroke="#FFF" mask="url(#v)" stroke-width="4" xlink:href="#g"/></g><g transform="translate(86 2)"><use fill="#000" xlink:href="#h"/><use stroke="#FFF" mask="url(#w)" stroke-width="4" xlink:href="#h"/></g><g transform="translate(86 2)"><use fill="#000" xlink:href="#i"/><use stroke="#FFF" mask="url(#x)" stroke-width="4" xlink:href="#i"/></g><g transform="translate(86 2)"><use fill="#000" xlink:href="#j"/><use stroke="#FFF" mask="url(#y)" stroke-width="4" xlink:href="#j"/></g><g><g transform="translate(1.473 12.405)"><use fill="#000" xlink:href="#k"/><use stroke="#FFF" mask="url(#z)" stroke-width="4" xlink:href="#k"/></g></g><g><g transform="matrix(-1 0 0 1 294.995 10.333)"><use fill="#000" xlink:href="#l"/><use stroke="#FFF" mask="url(#A)" stroke-width="4" xlink:href="#l"/></g></g><g stroke="#FFF" font-weight="600" font-family="UniSansHeavyCAPS, Uni Sans" stroke-width="4" fill="#FFF" font-size="64"><text transform="translate(271 99)"><tspan x="4.304" y="48">Action</tspan></text><text transform="translate(271 99)"><tspan x=".264" y="105">Page</tspan></text></g><g font-size="64" font-family="UniSansHeavyCAPS, Uni Sans" fill="#000" font-weight="600"><text transform="translate(271 99)"><tspan x="4.304" y="48">Action</tspan></text><text transform="translate(271 99)"><tspan x=".264" y="105">Page</tspan></text></g><g fill="#FFF"><path d="M24.22 46.17l.303-1.053-.696-.777-5.908 3.781-2.38-.446a.357.357 0 0 0-.377.54l1.219 1.881-9.372 6.008 1.137 1.758 10.216-6.55.975 1.512 1.655-1.061-.563-.878.703-.451.564.88.86-.553-.563-.878.704-.451.563.878.86-.55-.564-.879.704-.452.563.88.859-.551-.563-.88.918-.59-1.817-1.119zM25.665 43.777l-2.274-2.349.504-.485 2.274 2.35zM27.752 42.515h-.703v-3.037h.703zM29.003 43.803l-.478-.513 2.065-1.901.478.513zM43.376 53.878l.704-1.145-9.108-5.59-.508-1.975a.526.526 0 0 0-.45-.297.535.535 0 0 0-.48.25l-.503.795-2.586-1.576-.226 1.211-1.103.197-.33 1.804 2.07 1.333a17.64 17.64 0 0 1-2.507 2.12c-2.343 1.647-4.69 2.688-4.69 2.688l1.443 4.223s3.245-1.133 5.943-3.277c.346-.274.654-.535.94-.788a2.647 2.647 0 0 0 1.256 2.143 2.665 2.665 0 0 0 3.105-.231l-.49 5.498 4.011-.012-.338-4.498s-.038-.567.365-.799c.36-.209.8.003.8.003l1.016.62.837-1.363 1.089.668.823-1.338-1.083-.664zm-8.76 1.4a1.47 1.47 0 0 1-1.473-1.466 1.47 1.47 0 0 1 2.27-1.23l-1.123.993a.402.402 0 0 0-.032.57.407.407 0 0 0 .573.034l1.115-.99c.089.19.142.4.142.622 0 .811-.657 1.467-1.472 1.467zm6.568-1.76a.437.437 0 0 1-.6.14.431.431 0 0 1-.141-.597.435.435 0 1 1 .741.458z"/></g><g><g transform="rotate(-20 179.619 -802.89)"><use fill="#000" xlink:href="#m"/><use stroke="#FFF" mask="url(#B)" stroke-width="4" xlink:href="#m"/></g><g transform="rotate(-20 179.619 -802.89)"><use fill="#000" xlink:href="#n"/><use stroke="#FFF" mask="url(#C)" stroke-width="4" xlink:href="#n"/></g><g transform="rotate(-20 179.619 -802.89)"><use fill="#000" xlink:href="#o"/><use stroke="#FFF" mask="url(#D)" stroke-width="4" xlink:href="#o"/></g></g></g></svg>